<svg xmlns="http://www.w3.org/2000/svg" viewBox="0 -42.600006103515625 506.4000244140625 142.80001831054688"><g><path d="M108 6L148.60 78.20Q155 89.20 158.80 93.70Q162.60 98.20 164.40 98.20L164.40 98.20L164.40 100L139.40 100L139.40 98.20Q140.20 98.20 140.60 97.60Q141 97 140.50 95.20Q140 93.40 138.60 90.20Q137.20 87 134.20 81.80L134.20 81.80L97.40 16.60L74.80 39L74.80 82.80Q74.80 87.60 75.40 90.70Q76 93.80 76.70 95.40Q77.40 97 78.20 97.60Q79 98.20 79.60 98.20L79.60 98.20L79.60 100L56 100L56 98.20Q56.40 98.20 57.20 97.60Q58 97 58.70 95.40Q59.40 93.80 60 90.70Q60.60 87.60 60.60 82.80L60.60 82.80L60.60-23.20Q60.60-28.20 60-31.20Q59.40-34.20 58.70-35.80Q58-37.40 57.20-38Q56.40-38.60 56-38.60L56-38.60L56-40.40L79.60-40.40L79.60-38.60Q79-38.60 78.20-38Q77.40-37.40 76.70-35.80Q76-34.20 75.40-31.20Q74.80-28.20 74.80-23.20L74.80-23.20L74.80 36.60L128.80-17.20Q138.80-27.40 141.10-33Q143.40-38.60 134.20-38.60L134.20-38.60L134.20-40.40L166.20-40.40L166.20-38.60Q162-38.60 157.20-36.40Q152.40-34.20 147.50-30.80Q142.60-27.40 137.90-23.30Q133.20-19.20 129.60-15.60L129.60-15.60L108 6Z" fill="black"></path><path d="M201.80-40.20L201.80-38.40Q201.40-38.40 200.60-37.80Q199.80-37.20 199-35.60Q198.20-34 197.70-31Q197.20-28 197.20-23L197.20-23L197.20 98.20L219.80 98.20Q227.20 97.40 233.30 96Q239.40 94.60 244.50 92.70Q249.60 90.80 254.10 88.40Q258.60 86 263.20 83.20L263.20 83.20L265 83.20L265 100.20L247.80 100.20L242.60 100L178.20 100L178.20 98.20Q178.60 98.20 179.40 97.70Q180.20 97.20 180.90 95.50Q181.60 93.80 182.20 90.80Q182.80 87.80 182.80 82.80L182.80 82.80L182.80-23Q182.80-28 182.20-31Q181.60-34 180.90-35.60Q180.20-37.20 179.40-37.80Q178.60-38.40 178.20-38.40L178.20-38.40L178.20-40.20L201.80-40.20Z" fill="black"></path><path d="M364.60 78.60L363 73.80Q360.80 67.20 357.10 60.90Q353.40 54.60 348.40 49.60Q343.40 44.60 337.20 41.30Q331 38 323.60 37.20L323.60 37.20Q320.80 37 317.80 37.30Q314.80 37.60 312 38.60Q309.20 39.60 306.90 41.40Q304.60 43.20 303.60 46.20L303.60 46.20L293.80 75.40Q289.80 86.80 289.90 92.50Q290 98.20 294 98.20L294 98.20L294 100L277 100L277 98.20Q278.20 98.20 279.80 97.10Q281.40 96 283.30 93.30Q285.20 90.60 287.40 86.10Q289.60 81.60 292 74.80L292 74.80L327.60-29.40L323.80-40.40L339-40.40L377.20 71Q379.20 76.60 381.10 81.60Q383 86.60 384.70 90.30Q386.40 94 387.80 96.10Q389.20 98.20 390.40 98.20L390.40 98.20L390.40 100L367 100L367 98.20Q368 98.20 367.70 92.60Q367.40 87 364.60 78.60L364.60 78.60ZM328.60-26.60L305.80 40.20Q309.20 37 314.20 36.10Q319.20 35.20 323.60 35.60L323.60 35.60Q335 36.60 343.60 43.20Q352.20 49.80 358 59L358 59L328.60-26.60Z" fill="black"></path><path d="M459.60 22.60L488 71.80Q491.20 77.40 494.10 82.20Q497 87 499.40 90.60Q501.80 94.20 503.50 96.20Q505.20 98.20 506.40 98.20L506.40 98.20L506.40 100L483 100L483 98.20Q484.20 98.20 482 92Q479.80 85.80 474.20 76.20L474.20 76.20L443.80 23.60L421.20 23.60L421.20 82.80Q421.20 87.60 421.70 90.70Q422.20 93.80 423 95.40Q423.80 97 424.60 97.60Q425.40 98.20 425.80 98.20L425.80 98.20L425.80 100L402.40 100L402.40 98.20Q402.80 98.20 403.60 97.60Q404.40 97 405.10 95.40Q405.80 93.80 406.40 90.70Q407 87.60 407 82.80L407 82.80L407-23.20Q407-28.20 406.40-31.20Q405.80-34.20 405.10-35.80Q404.40-37.40 403.60-38Q402.80-38.60 402.40-38.60L402.40-38.60L402.40-40.40L404.20-40.40Q413.20-40.60 422.80-41.60Q432.40-42.60 441.20-42.60L441.20-42.60Q456.40-42.60 466.80-40.10Q477.20-37.60 483.60-33.20Q490-28.80 492.80-22.70Q495.60-16.60 495.60-9.40L495.60-9.40Q495.60-3.40 493.70 1.80Q491.80 7 487.50 11.20Q483.20 15.40 476.30 18.30Q469.40 21.20 459.60 22.60L459.60 22.60ZM421.20-39.80L421.20-39.80L421.20 22L441.20 22Q447.80 22 454.90 20.60Q462 19.20 467.90 15.60Q473.80 12 477.70 5.90Q481.60-0.20 481.60-9.40L481.60-9.40Q481.60-18.60 477.70-24.70Q473.80-30.80 467.90-34.40Q462-38 454.90-39.50Q447.80-41 441.20-41L441.20-41Q436.60-41 431.50-40.60Q426.40-40.20 421.20-39.80Z" fill="black"></path></g></svg>